<svg class="icon" viewBox="0 0 3698 1024" xmlns="http://www.w3.org/2000/svg" width="722.266" height="200"><defs><style/></defs><path d="M1416.253 659.132V162.27h306.815v80.624h-207.067v127.515h158.762v78.864H1516v209.86zm733.496-123.69a176.47 176.47 0 0 1-65.02 93.475q-48.458 36.488-119.023 36.45-86.859 0-142.278-55.764t-55.42-147.48q0-92.404 54.731-148.015t142.967-55.61q86.17 0 140.212 53.545t54.043 141.398a242.637 242.637 0 0 1-2.792 38.553h-288.38q3.442 42.76 29.87 66.894a92.71 92.71 0 0 0 65.02 24.133q55.572 0 78.865-47.579zM1962.837 340.04a90.913 90.913 0 0 0-62.036 22.412q-25.51 22.413-31.439 62.38h187.41q-1.072-38.246-27.806-61.5a97.032 97.032 0 0 0-66.129-23.292zm257.975 204.429a242.714 242.714 0 0 1-14.075-83.723 240.037 240.037 0 0 1 14.075-83.416 185.956 185.956 0 0 1 38.59-64.063 172.875 172.875 0 0 1 57.37-40.312 175.247 175.247 0 0 1 70.872-14.42 167.253 167.253 0 0 1 73.242 16.485 145.338 145.338 0 0 1 55.076 44.481V132.092h101.124v527.04h-101.124v-58.364a142.622 142.622 0 0 1-52.092 46.737 159.489 159.489 0 0 1-77.144 17.862 171.92 171.92 0 0 1-127.706-55.917 192.725 192.725 0 0 1-38.208-64.981zm265.47 2.447q30.598-31.285 30.598-84.793t-30.598-84.793a103.496 103.496 0 0 0-147.517-.688q-30.598 30.597-30.598 84.143t30.598 85.443a97.912 97.912 0 0 0 73.127 31.974 100.283 100.283 0 0 0 74.39-31.286zm228.257 112.216V162.27h113.249L2985.9 531.618l157.73-369.35h112.598v496.864h-99.863V335.986l-133.098 323.146h-75.423L2813.98 335.986v323.146zm639.524-496.863h99.709v417.999h163.658v78.864h-263.367z" fill="#3E3A39"/><path d="M700.503 188.927l-114.74 114.74-114.74-114.74a162.434 162.434 0 0 1 0-229.48 162.357 162.357 0 0 1 229.672 0 162.434 162.434 0 0 1-.192 229.48z" fill="#6E62A3"/><path d="M1025.295 513.718a162.434 162.434 0 0 1-229.672 0l-114.74-114.74 114.74-114.74a162.434 162.434 0 0 1 229.672 0 162.357 162.357 0 0 1 0 229.48z" fill="#62B853"/><path d="M700.503 838.51a162.357 162.357 0 0 1-229.48 0 162.434 162.434 0 0 1 0-229.672l114.74-114.74 114.74 114.74a162.434 162.434 0 0 1 0 229.672z" fill="#EDB850"/><path d="M490.529 398.901l-114.74 114.74a162.434 162.434 0 0 1-229.481 0 162.357 162.357 0 0 1 0-229.48 162.434 162.434 0 0 1 229.672 0z" fill="#DF675C"/></svg>